<svg xmlns="http://www.w3.org/2000/svg" x="0px" y="0px"
width="24" height="24"
viewBox="0 0 172 172"
style=" fill:#000000;"><g fill="none" fill-rule="nonzero" stroke="none" stroke-width="1" stroke-linecap="butt" stroke-linejoin="miter" stroke-miterlimit="10" stroke-dasharray="" stroke-dashoffset="0" font-family="none" font-weight="none" font-size="none" text-anchor="none" style="mix-blend-mode: normal"><path d="M0,172v-172h172v172z" fill="none"></path><g fill="#f1f2f2"><path d="M86,3.49375l-36.77844,35.31375c-0.90031,0.84656 -1.27656,2.10969 -0.98094,3.30563c0.29562,1.19594 1.20937,2.15 2.39187,2.48594c1.19594,0.34937 2.4725,0.02687 3.34594,-0.84656l28.58156,-27.42594v148.79344c-0.01344,1.23625 0.63156,2.39188 1.70656,3.02344c1.075,0.61813 2.39187,0.61813 3.46687,0c1.075,-0.63156 1.72,-1.78719 1.70656,-3.02344v-148.79344l28.58156,27.42594c0.87344,0.87344 2.15,1.19594 3.34594,0.84656c1.1825,-0.33594 2.09625,-1.29 2.39188,-2.48594c0.29562,-1.19594 -0.08063,-2.45906 -0.98094,-3.30563z"></path></g></g></svg>